<?xml version="1.0" encoding="utf-8"?>
<!-- Generator: Adobe Illustrator 21.0.0, SVG Export Plug-In . SVG Version: 6.00 Build 0)  -->
<svg version="1.1" id="Layer_1" xmlns="http://www.w3.org/2000/svg" xmlns:xlink="http://www.w3.org/1999/xlink" x="0px" y="0px"
	 viewBox="0 0 906.7 642.6" style="enable-background:new 0 0 906.7 642.6;" xml:space="preserve">
<style type="text/css">
	.st0{fill:#4EB770;}
	.st1{fill:#DD87B5;}
	.st2{fill:#EFC61C;}
	.st3{fill:#8A4D9C;}
	.st4{fill:#2882BC;}
	.st5{fill:#E67F26;}
	.st6{fill:#D4572A;}
	.st7{fill:#E84D3D;}
</style>
<title>arblogo_svg</title>
<path class="st0" d="M604.2,642c-17.2-24.5-34.3-49-51.5-73.4c-31.9-45.3-63.8-90.7-95.7-136c-1-1.4-2.1-2.8-3.2-4.1V428
	c2.3,0,4.6,0,6.8,0h287.1c2.3,0,4.6,0,6.9,0l1.1,1.1c-0.7,0.8-1.4,1.6-2,2.4l-145.1,206C607.2,639.2,606.5,641.3,604.2,642z"/>
<path class="st1" d="M453.8,428.1v0.4c-11,13.9-20.7,28.6-31,43.3c-39.1,55.3-78.1,110.6-117.1,165.9c-1.2,1.7-1.1,4.7-4.2,4.8
	c-0.3-1.7-1.1-3.4-2.3-4.7c-40.8-57.7-81.5-115.4-122.3-173.3c-8.4-11.9-16.3-24.2-25.5-35.5l1.2-1.3c1.6,0,3.1,0,4.8,0h290.8
	c1.4,0,2.8,0,4.2-0.2h0.4h0.4C453.3,427.9,453.5,428,453.8,428.1z"/>
<path class="st2" d="M754.7,427.8c-2.3,0-4.6,0-6.9,0H460.7c-2.3,0-4.6,0-6.8,0c-0.3,0-0.5-0.1-0.7-0.3c0.7-1.4,1.5-2.8,2.3-4.1
	c15.9-22.5,31.8-45.1,47.8-67.6c30.2-43,60.3-85.8,90.5-128.5c3.3-4.7,5.8-10.1,10.7-13.4l91.1,130L754.7,427.8z"/>
<path class="st3" d="M151.4,429.1c9.3,11.3,17.1,23.6,25.5,35.5c40.8,57.7,81.5,115.5,122.2,173.3c1.2,1.3,2,2.9,2.3,4.7H90.6H0.1
	L151.4,429.1z"/>
<path class="st4" d="M604.2,642c2.3-0.6,3.1-2.8,4.3-4.5l145.4-206.2c0.6-0.9,1.3-1.6,2-2.4l147.5,208c1.1,1.6,2.2,3.1,3.4,4.9
	c-1.5,1.3-3.1,0.7-4.6,0.7H609.3C607.6,642.8,605.8,642.6,604.2,642z"/>
<path class="st5" d="M604.5,214c-4.9,3.4-7.4,8.8-10.7,13.4c-30.3,42.8-60.4,85.6-90.5,128.5c-15.9,22.6-31.8,45.1-47.8,67.6
	c-0.8,1.3-1.6,2.7-2.3,4.1h-0.4h-0.4c0-1.4-0.5-2.8-1.5-3.8c-11-15.6-22-31.3-33-46.9c-27.6-39.1-55.3-78.3-82.9-117.4
	c-10.7-15.2-21.5-30.2-32.4-45.3c0-0.7,0.4-0.9,0.9-1h292.6c2.2,0,4.6,0.8,6.6-1L604.5,214z"/>
<path class="st6" d="M602.8,212.3c-2,1.8-4.4,1-6.6,1H303.7l43.2-61.9L388.9,91l38.5-55.1c7.8-11.1,15.6-22.1,23.2-33.3
	c2.1-3.1,3.3-3.9,5.8-0.2c22.6,32.8,45.3,65.4,68,97.9c17.9,25.7,36.1,51.2,54,76.8C586.7,188.9,594.7,200.5,602.8,212.3z"/>
<path class="st7" d="M302.7,214.3c10.7,15.1,21.7,30.2,32.4,45.3c27.6,39.1,55.2,78.2,82.8,117.3c11,15.6,22,31.3,33,46.9
	c1,1,1.5,2.4,1.5,3.8c-1.4,0-2.8,0.2-4.2,0.2H157.3c-1.6,0-3.1,0-4.8,0c12.1-17.3,24.2-34.5,36.3-51.8L302.7,214.3z"/>
</svg>
