<svg xmlns="http://www.w3.org/2000/svg" viewBox="0 0 724.35 1007.52"><defs><style>.cls-1{fill:#80cbc4;}</style></defs><title>BuySell Calculators</title><g id="Layer_2" data-name="Layer 2"><g id="Layer_1-2" data-name="Layer 1"><path class="cls-1" d="M676.64,266.52H354.23l77.92,83h245.7v118H441l-114.6,107.6V597.4a31.12,31.12,0,0,1-31.12,31.12H269.47l-9.9,9.29,6.3,6.71h29.36a31.11,31.11,0,0,1,31.12,31.11V707.4a31.12,31.12,0,0,1-31.12,31.12H219.46a31.11,31.11,0,0,1-31.11-31.12V697l-46,10.73v252.1a47.71,47.71,0,0,0,47.71,47.71H676.64a47.71,47.71,0,0,0,47.71-47.71V314.23A47.71,47.71,0,0,0,676.64,266.52ZM326.35,927.4a31.12,31.12,0,0,1-31.12,31.12H219.46a31.11,31.11,0,0,1-31.11-31.12V895.63a31.11,31.11,0,0,1,31.11-31.11h75.77a31.11,31.11,0,0,1,31.12,31.11Zm0-110a31.12,31.12,0,0,1-31.12,31.12H219.46a31.11,31.11,0,0,1-31.11-31.12V785.63a31.11,31.11,0,0,1,31.11-31.11h75.77a31.11,31.11,0,0,1,31.12,31.11Zm176,111a31.12,31.12,0,0,1-31.12,31.12H395.46a31.11,31.11,0,0,1-31.11-31.12V896.63a31.11,31.11,0,0,1,31.11-31.11h75.77a31.11,31.11,0,0,1,31.12,31.11Zm0-110a31.12,31.12,0,0,1-31.12,31.12H395.46a31.11,31.11,0,0,1-31.11-31.12V786.63a31.11,31.11,0,0,1,31.11-31.11h75.77a31.11,31.11,0,0,1,31.12,31.11Zm0-110a31.12,31.12,0,0,1-31.12,31.12H395.46a31.11,31.11,0,0,1-31.11-31.12V676.63a31.11,31.11,0,0,1,31.11-31.11h75.77a31.11,31.11,0,0,1,31.12,31.11Zm0-110a31.12,31.12,0,0,1-31.12,31.12H395.46a31.11,31.11,0,0,1-31.11-31.12V566.63a31.11,31.11,0,0,1,31.11-31.11h75.77a31.11,31.11,0,0,1,31.12,31.11Zm176,330a31.12,31.12,0,0,1-31.12,31.12H571.46a31.11,31.11,0,0,1-31.11-31.12V896.63a31.11,31.11,0,0,1,31.11-31.11h75.77a31.11,31.11,0,0,1,31.12,31.11Zm0-110a31.12,31.12,0,0,1-31.12,31.12H571.46a31.11,31.11,0,0,1-31.11-31.12V786.63a31.11,31.11,0,0,1,31.11-31.11h75.77a31.11,31.11,0,0,1,31.12,31.11Zm0-110a31.12,31.12,0,0,1-31.12,31.12H571.46a31.11,31.11,0,0,1-31.11-31.12V676.63a31.11,31.11,0,0,1,31.11-31.11h75.77a31.11,31.11,0,0,1,31.12,31.11Zm0-110a31.12,31.12,0,0,1-31.12,31.12H571.46a31.11,31.11,0,0,1-31.11-31.12V566.63a31.11,31.11,0,0,1,31.11-31.11h75.77a31.11,31.11,0,0,1,31.12,31.11Z"/><path class="cls-1" d="M352.58,310.06l98.76,105.18L231.07,622.05l-15.31,14.38,14.37,15.31,2.83,3L43.9,698.83,99.8,512.92l2.83,3L117,531.25l15.31-14.38L352.58,310.06m.94-29.69L117.94,501.56,90.18,472,13.35,727.52,273.2,666.93l-27.76-29.57L481,416.17l-127.5-135.8Z"/><polygon class="cls-1" points="142.35 445.94 142.35 464.93 188.85 421.27 188.85 402.47 142.35 445.94"/><polygon class="cls-1" points="245.5 349.52 265.27 349.52 353.67 266.52 334.28 266.52 245.5 349.52"/><path class="cls-1" d="M437.73,28.62l-56.3,185.79-2.82-3-14.34-15.34-15.34,14.34L128.21,416.72,29.68,311.33,250.4,105l15.34-14.34L251.4,75.31l-2.82-3L437.73,28.62M468.35,0l-260,60,27.7,29.63L0,310.33,127.21,446.41,363.27,225.73,391,255.36,468.35,0Z"/></g></g></svg>