<svg xmlns="http://www.w3.org/2000/svg" xmlns:xlink="http://www.w3.org/1999/xlink" viewBox="0 0 231.41 231.41"><defs><style>.cls-1{fill:url(#linear-gradient);}</style><linearGradient id="linear-gradient" x1="8.84" y1="222.57" x2="222.57" y2="8.84" gradientUnits="userSpaceOnUse"><stop offset="0" stop-color="#72f399"/><stop offset="0.21" stop-color="#88eb85"/><stop offset="0.51" stop-color="#a1e36f"/><stop offset="0.78" stop-color="#b0de62"/><stop offset="1" stop-color="#b5dc5d"/></linearGradient></defs><title>Checkbox</title><g id="Layer_2" data-name="Layer 2"><g id="Layer_1-2" data-name="Layer 1"><path class="cls-1" d="M201.32,0H30.09A30.18,30.18,0,0,0,0,30.09V201.32a30.18,30.18,0,0,0,30.09,30.09H201.32a30.18,30.18,0,0,0,30.09-30.09V30.09A30.18,30.18,0,0,0,201.32,0ZM188.76,82.58,114,157.34c-.06.06-.13.07-.19.12s-.06.13-.12.18l-9.44,9.45a6.14,6.14,0,0,1-8.69,0l-53-53a6.14,6.14,0,0,1,0-8.69L52,95.93a6.14,6.14,0,0,1,8.69,0l39.25,39.24,70.72-70.72a6.56,6.56,0,0,1,9.29,0l8.84,8.84A6.58,6.58,0,0,1,188.76,82.58Z"/></g></g></svg>