<svg xmlns="http://www.w3.org/2000/svg" viewBox="0 0 280.29 280.29"><defs><style>.cls-1{fill:#d8d8d8;}</style></defs><title>Asset 1</title><g id="Layer_2" data-name="Layer 2"><g id="Layer_1-2" data-name="Layer 1"><path class="cls-1" d="M140.15,0A140.15,140.15,0,1,0,280.29,140.15,140.15,140.15,0,0,0,140.15,0Zm0,267A126.86,126.86,0,1,1,267,140.15,126.86,126.86,0,0,1,140.15,267Z"/><path class="cls-1" d="M140.15,19.33A120.82,120.82,0,1,0,261,140.15,120.82,120.82,0,0,0,140.15,19.33Zm0,23A19.35,19.35,0,1,1,120.8,61.63,19.35,19.35,0,0,1,140.15,42.29ZM174,224.72H106.29V208.13h19.35v-94H106.29V94.8h51.13v112H174Z"/></g></g></svg>