<?xml version="1.0" encoding="utf-8"?>
<!-- Generator: Adobe Illustrator 21.0.0, SVG Export Plug-In . SVG Version: 6.00 Build 0)  -->
<svg version="1.1" id="Layer_1" xmlns="http://www.w3.org/2000/svg" xmlns:xlink="http://www.w3.org/1999/xlink" x="0px" y="0px"
	 viewBox="0 0 126 166.9" style="enable-background:new 0 0 126 166.9;" xml:space="preserve">
<style type="text/css">
	.st0{clip-path:url(#SVGID_2_);}
	.st1{fill:#D0D0D0;}
	.st2{fill:#8B8F92;}
	.st3{fill:#93979B;}
	.st4{fill:#5D5D5D;}
	.st5{fill:#777777;}
	.st6{fill:url(#SVGID_3_);}
	.st7{fill:url(#SVGID_4_);}
	.st8{display:none;fill:url(#SVGID_5_);}
	.st9{display:none;fill:url(#SVGID_6_);}
	.st10{display:none;fill:url(#SVGID_7_);}
</style>
<title>top 5</title>
<g>
	<defs>
		<polygon id="SVGID_1_" points="5,115.9 5,5 121,5 121,115.9 63,160.6 		"/>
	</defs>
	<clipPath id="SVGID_2_">
		<use xlink:href="#SVGID_1_"  style="overflow:visible;"/>
	</clipPath>
	<g class="st0">
		<polygon class="st1" points="0,0 15,15 111,15 126,0 		"/>
		<polygon class="st2" points="0,0 0,118.4 15,111 15,15 		"/>
		<polygon class="st3" points="126,0 126,118.4 111,111 111,15 		"/>
		<polygon class="st4" points="0,118.4 15,111 63,148 63,166.9 		"/>
		<polygon class="st5" points="126,118.4 111,111 63,148 63,166.9 		"/>
	</g>
</g>
<linearGradient id="SVGID_3_" gradientUnits="userSpaceOnUse" x1="13" y1="86.815" x2="113" y2="86.815" gradientTransform="matrix(1 0 0 -1 0 168)">
	<stop  offset="1.000000e-02" style="stop-color:#D4D8D3"/>
	<stop  offset="3.000000e-02" style="stop-color:#CED3CF"/>
	<stop  offset="0.15" style="stop-color:#B1B8B9"/>
	<stop  offset="0.27" style="stop-color:#9DA4A9"/>
	<stop  offset="0.39" style="stop-color:#9099A0"/>
	<stop  offset="0.5" style="stop-color:#8C959D"/>
	<stop  offset="1" style="stop-color:#B2B6BA"/>
</linearGradient>
<polygon class="st6" points="13,111.4 13,12.4 113,12.4 113,111.4 63,149.9 "/>
<radialGradient id="SVGID_4_" cx="63" cy="87.08" r="80.42" gradientTransform="matrix(1 0 0 -1 0 168)" gradientUnits="userSpaceOnUse">
	<stop  offset="0" style="stop-color:#192C3F"/>
	<stop  offset="0.29" style="stop-color:#172839"/>
	<stop  offset="0.66" style="stop-color:#0F1C29"/>
	<stop  offset="1" style="stop-color:#060D14"/>
</radialGradient>
<polygon class="st7" points="111,110.4 63,147.4 15,110.4 15,14.4 111,14.4 "/>
<radialGradient id="SVGID_5_" cx="63" cy="87.075" r="33.3552" gradientTransform="matrix(1 0 0 -1 0 168)" gradientUnits="userSpaceOnUse">
	<stop  offset="0" style="stop-color:#192C3F"/>
	<stop  offset="0.29" style="stop-color:#172839"/>
	<stop  offset="0.66" style="stop-color:#0F1C29"/>
	<stop  offset="1" style="stop-color:#060D14"/>
</radialGradient>
<polygon class="st8" points="22.8,76 22.8,56.2 63,85.8 103.2,56.2 103.2,76 63,105.7 "/>
<linearGradient id="SVGID_6_" gradientUnits="userSpaceOnUse" x1="23.34" y1="86.895" x2="102.66" y2="86.895" gradientTransform="matrix(1 0 0 -1 0 168)">
	<stop  offset="0" style="stop-color:#E2C675"/>
	<stop  offset="0.5" style="stop-color:#CDA349"/>
	<stop  offset="1" style="stop-color:#C3922E"/>
</linearGradient>
<polygon class="st9" points="23.3,75.8 23.3,57.2 63,86.5 102.7,57.2 102.7,75.8 63,105 "/>
<linearGradient id="SVGID_7_" gradientUnits="userSpaceOnUse" x1="24.34" y1="86.525" x2="101.66" y2="86.525" gradientTransform="matrix(1 0 0 -1 0 168)">
	<stop  offset="0" style="stop-color:#C3922E"/>
	<stop  offset="0.5" style="stop-color:#CDA349"/>
	<stop  offset="1" style="stop-color:#E2C675"/>
</linearGradient>
<polygon class="st10" points="101.7,75.3 63,103.8 24.3,75.3 24.3,59.2 63,87.7 101.7,59.2 "/>
</svg>
