<svg xmlns="http://www.w3.org/2000/svg" viewBox="0 0 678.43 899.29"><defs><style>.cls-1{fill:#ffeb3b;}</style></defs><title>Var Calculator</title><g id="Layer_2" data-name="Layer 2"><g id="Layer_2-2" data-name="Layer 2"><path class="cls-1" d="M339.34,311.15l1.46,0,0,.08c.63,1.78,1.29,3.61,2.11,5.43L354.38,342l20.92,46.2,55.87,123.32-21.7-133.63-6.62-40.75-.85-5.26c1.75,1,3.53,2,5.33,3.08,52.42,31,102,78.95,151.61,146.68,24.3,33.18,44.52,66,60.1,97.6,17.88,36.26,30.25,72.06,36.76,106.41,6.08,32.07,6.16,62.81.24,88.89-6.79,29.88-21.26,53.19-43,69.28-20.5,15.15-46.09,25.31-78.23,31.07-30.24,5.41-62.51,6.14-90.09,6.14h-2.47l-18.46,0c-26.88,0-54.21.09-80.64.16s-53.71.17-80.55.17c-26,0-49-.08-70.21-.24-48.32-.37-113.36-10.6-148.8-57.25s-27.64-111.06-14.91-157c9.78-35.31,25.43-72,47.83-112,10.05-18,23.45-35.39,36.42-52.24,2.7-3.5,5.49-7.13,8.21-10.7,15.15-19.93,29.37-37.69,43.5-54.3C184,414.78,205.08,390.83,227.93,370q12.88-11.75,25.39-21.13-5.37,11.47-10.56,22.58L176.11,514.07l97.12-123.88c9.12-11.63,18.61-23.82,28.21-36.25,8-10.4,14.54-18.88,20.47-26.69,1.64-2.17,3.19-4.55,4.83-7.08a84.28,84.28,0,0,1,6-8.51,41.09,41.09,0,0,1,6.62-.51m0-18c-5.66,0-11.42.78-14.29,2-6.68,2.78-12.93,15.24-17.47,21.23q-10.12,13.33-20.38,26.57-14,18.12-28.13,36.15,17.51-37.47,35.11-74.91C236.6,328.52,190.52,379.33,150.91,425.9,135.67,443.82,121,462.24,106.79,481c-15.94,21-33.15,42.05-46,65.06-20.52,36.7-38.22,75.39-49.47,116C-4.37,718.6-8.19,785.44,29.23,834.69c37.73,49.65,103.87,63.91,163,64.36q35.18.26,70.35.24c53.73,0,107.47-.33,161.19-.33l18.43,0h2.5c60.3,0,128.72-3.55,179-40.74,54.8-40.52,61.61-113.53,49.77-176-14.57-76.83-54.25-148.77-100-211.29-42.57-58.13-94.41-114.58-157-151.54a220.56,220.56,0,0,0-37.69-18.1l12.9,79.41-32.37-71.46c-1.63-3.59-3.14-10.05-5.86-12.94-2.14-2.27-8.08-3.17-14.13-3.17Z"/><path class="cls-1" d="M357.42,18A220.13,220.13,0,0,1,463.77,45L430.18,145.75l41.25-51.66a105.57,105.57,0,0,1,38.17,57.39L404,273.47a244,244,0,0,0-26.86-8.5l23.59-63.54L358.6,261.19a171.93,171.93,0,0,0-26.26-2.08,144,144,0,0,0-63.45,14.36S174.74,163,169.82,158.85C171.88,131.23,196.16,107,231,89.57l44.49,85.66-39.29-130C277.4,27.88,317.9,18,357.42,18m0-18C317,0,275,9.35,229.19,28.58l-15,6.27,4.69,15.53,6.58,21.78-2.61,1.31c-43.38,21.71-68.6,51.56-71,84.05l-.68,9.23,6.65,5.55c6.94,7.1,63.11,72.65,97.35,112.85l9,10.58,12.51-6.05a126.72,126.72,0,0,1,55.62-12.57A154.13,154.13,0,0,1,355.85,279l8.27,1.28,8.6,2.17a225.87,225.87,0,0,1,24.88,7.87l11.76,4.47,8.23-9.51,105.61-122,6.25-7.21L527,146.85a123.11,123.11,0,0,0-44.54-67l-9-7,7.4-22.2,4.78-14.34-13.3-7.19A239.15,239.15,0,0,0,357.42,0Z"/><path class="cls-1" d="M365.18,728.27q0,14.64-9.56,22.37T331,758.37q-14.25,0-23-8.34t-8.75-22.57q0-13,11.39-21.36a41.1,41.1,0,0,1,24.81-8.34q11.38,0,20.55,9.56T365.18,728.27Zm14.24-255.06q0-13-11.59-25.84t-24.21-12.81Q305,434.56,305,553.35q0,13.41,1.22,40.68t1.23,40.68q0,31.72,16.27,31.73,5.69,0,17.49-5.7,1.21-8.54,7.32-57,6.92-29.68,11.39-63.87,2-15,10.78-37.42T379.42,473.21Z"/></g></g></svg>