<svg xmlns="http://www.w3.org/2000/svg" xmlns:xlink="http://www.w3.org/1999/xlink" viewBox="0 0 144.08 144.08"><defs><style>.cls-1{fill:#e5e9ea;}.cls-2{fill:url(#linear-gradient);}.cls-3{fill:url(#linear-gradient-2);}.cls-4{fill:url(#linear-gradient-3);}.cls-5{fill:url(#linear-gradient-4);}.cls-6{fill:url(#linear-gradient-5);}.cls-7{fill:url(#linear-gradient-6);}.cls-8{fill:url(#linear-gradient-7);}.cls-9{fill:url(#linear-gradient-8);}.cls-10{fill:#fff;}.cls-11{fill:#f4f4f4;}.cls-12{fill:none;stroke:#f4f4f4;stroke-linecap:round;stroke-miterlimit:10;stroke-width:0.5px;}</style><linearGradient id="linear-gradient" x1="15.47" y1="89.8" x2="43.21" y2="53.65" gradientUnits="userSpaceOnUse"><stop offset="0.37" stop-color="#fc754b"/><stop offset="0.92" stop-color="#f5c65b"/></linearGradient><linearGradient id="linear-gradient-2" x1="47.56" y1="38.73" x2="66.93" y2="13.48" gradientTransform="translate(45.49 -33.84) rotate(53.78)" xlink:href="#linear-gradient"/><linearGradient id="linear-gradient-3" x1="67.73" y1="32.12" x2="87.1" y2="6.88" gradientTransform="matrix(0.59, 0.81, -0.81, 0.59, 49.12, -47.75)" xlink:href="#linear-gradient"/><linearGradient id="linear-gradient-4" x1="83.78" y1="32.41" x2="103.15" y2="7.17" gradientTransform="translate(54.86 -55.14) rotate(53.78)" xlink:href="#linear-gradient"/><linearGradient id="linear-gradient-5" x1="95.35" y1="80.52" x2="134.85" y2="80.52" xlink:href="#linear-gradient"/><linearGradient id="linear-gradient-6" x1="97.22" y1="77.44" x2="138.87" y2="77.44" xlink:href="#linear-gradient"/><linearGradient id="linear-gradient-7" x1="71.55" y1="22.3" x2="71.55" y2="144.08" gradientUnits="userSpaceOnUse"><stop offset="0" stop-color="#f5c65b"/><stop offset="0.82" stop-color="#fc754b"/></linearGradient><linearGradient id="linear-gradient-8" x1="50.74" y1="106.99" x2="86.99" y2="45.26" xlink:href="#linear-gradient"/></defs><title>Asset 3</title><g id="Layer_2" data-name="Layer 2"><g id="Layer_3" data-name="Layer 3"><path class="cls-1" d="M144.08,72A71.77,71.77,0,0,1,138.87,99a69.71,69.71,0,0,1-4,8.35c-1,1.78-2.06,3.5-3.2,5.18-.87,1.28-1.78,2.52-2.73,3.74a72.07,72.07,0,0,1-56.51,27.83l-2.1,0a71.76,71.76,0,0,1-46.08-18.14,73,73,0,0,1-10-11c-1-1.35-2-2.74-2.86-4.16A71.49,71.49,0,0,1,3.59,94.56h0A72,72,0,1,1,144.08,72Z"/></g><g id="Layer_1-2" data-name="Layer 1"><path class="cls-2" d="M44,62.49a95.73,95.73,0,0,1-8.57,19.79c-.89,1.59-1.83,3.19-2.82,4.78-.74,1.18-1.48,2.34-2.23,3.46-5.4,8.07-11.08,14.45-16,18.21a27.49,27.49,0,0,1-3,2.07A71.49,71.49,0,0,1,3.59,94.56h0A105.44,105.44,0,0,1,14.53,71.49c.63-1,1.27-2,1.92-3h0C27.09,52.43,38.93,42.91,43.62,47a6.06,6.06,0,0,1,1.79,3.81C45.85,53.67,45.32,57.74,44,62.49Z"/><ellipse class="cls-3" cx="53.49" cy="27.66" rx="24.55" ry="8.08" transform="translate(-5.41 40.21) rotate(-39.37)"/><ellipse class="cls-4" cx="74.37" cy="26.12" rx="24.55" ry="8.08" transform="translate(-1.93 45.89) rotate(-33.88)"/><ellipse class="cls-5" cx="89.37" cy="31.86" rx="24.55" ry="8.08" transform="translate(-2.58 55.22) rotate(-33.88)"/><path class="cls-6" d="M134.85,107.33c-1,1.78-2.06,3.5-3.2,5.18a23.34,23.34,0,0,1-3.19-1.82h0c-5.86-4-13.1-11.92-19.7-22.24l-.08-.13c-2-3.1-3.77-6.2-5.35-9.23a89.38,89.38,0,0,1-6.16-14.67c-1.48-4.84-2.1-9-1.7-12a6.14,6.14,0,0,1,1.75-3.91l5.94,9.28,8.36,13.06,15.69,24.52Z"/><path class="cls-7" d="M138.87,99a69.71,69.71,0,0,1-4,8.35l-7.64-11.94L111.52,70.87l-8.36-13.06-5.94-9.28c4.92-4.38,18.08,6.38,29.38,24l.1.16C132.7,82.11,137,91.55,138.87,99Z"/><path class="cls-8" d="M128.92,116.25a72.07,72.07,0,0,1-56.51,27.83l-2.1,0a71.76,71.76,0,0,1-46.08-18.14,73,73,0,0,1-10-11l.19-6.23.52-16.45.19-6.06c-1-4.42,0,0,0-4.74a62.26,62.26,0,0,1,1.37-13h0a60.75,60.75,0,0,1,4.87-14.14A58.75,58.75,0,0,1,32,39.15h0l.8-.81A54.56,54.56,0,0,1,64.41,22.74l.16,0c1.24-.16,2.48-.27,3.74-.34h0c1-.05,1.91-.08,2.88-.08a53.49,53.49,0,0,1,14,1.86h0l.47.13c.51.14,1,.29,1.51.45l.41.14a54.23,54.23,0,0,1,12.74,6c.4.26.8.52,1.2.81A58.66,58.66,0,0,1,123.11,59h0a60.72,60.72,0,0,1,3.59,13.72,61.66,61.66,0,0,1,.62,8.76v.4l-.11,11.59,0,1.71,0,.21,1.25,15.29h0Z"/><path class="cls-9" d="M112.22,76.32c0,8.32-4.81,15.86-12.6,21.33a.25.25,0,0,0-.12.22s-7.81,4.17-8.2,4.34c-1.7.72-5.17,1.24-9.5,1.55-3,.22-6.38.35-9.89.37h-2c-2.32,0-4.66,0-6.94-.14l-2.41-.11c-2.73-.14-5.31-.34-7.61-.61a31.1,31.1,0,0,1-8.25-1.73c-.2-.1-6.81-3.19-6.71-3.82-7.85-5.48-12.7-13-12.7-21.41C25.28,59.58,44.73,46,68.75,46S112.22,59.58,112.22,76.32Z"/><circle class="cls-10" cx="87.04" cy="77.3" r="16.39"/><circle class="cls-10" cx="51" cy="77.3" r="16.39"/><circle cx="51" cy="77.3" r="7.59"/><circle cx="87.04" cy="77.3" r="7.59"/><path class="cls-11" d="M49.29,108.66h0a4.23,4.23,0,0,1,4.23,4.23v3.67a0,0,0,0,1,0,0H45.06a0,0,0,0,1,0,0v-3.67A4.23,4.23,0,0,1,49.29,108.66Z" transform="translate(28.27 -8.5) rotate(13.8)"/><path class="cls-12" d="M40.28,113.72S65,125.58,94.63,114"/></g></g></svg>