<svg xmlns="http://www.w3.org/2000/svg" viewBox="0 0 822.9 647.47"><defs><style>.cls-1{fill:#673ab7;}</style></defs><title>Average Price Calculator</title><g id="Layer_2" data-name="Layer 2"><g id="Layer_2-2" data-name="Layer 2"><path class="cls-1" d="M547,647.47h-.63a75.1,75.1,0,0,1-52.61-22L258,391a76.11,76.11,0,0,1-17.56-27.3L181.75,205.33a75.71,75.71,0,0,1,17.41-79.6l28-27.95c-6.34-3.67-8.93-4.6-15.54-2.23-18.11,6.51-31.9,16-41,28.21-18.38,24.74-16,59.21-11.93,92.4,1.11,9.07,2.75,18.31,4.35,27.24,2.3,13,4.69,26.36,5.62,40L169,288c2.66,38.29,6,85.94-27.45,114.75C111.13,429,63.2,426.76,36.86,398,15.3,374.4,3.07,335.84.52,283.38-1.65,239,3,196.58,14,160.86,27.83,116.07,51.2,81.64,83.51,58.52c44.73-32,98.46-40.76,151.29-24.64a201.9,201.9,0,0,1,39.28,16.94l20.17-20.17c1.17-1.17,2.3-2.41,3.37-3.68A75.28,75.28,0,0,1,383.88,5.61L546,71.63A75.28,75.28,0,0,1,571.81,89L801.65,326.47a75.47,75.47,0,0,1-1.88,106.87l-200.48,193A75,75,0,0,1,547,647.47ZM217.81,76.25c8.2,0,14.23,3.54,20.52,7.23,1.8,1.06,3.68,2.16,5.74,3.27l1.6.86,7.62,9.45-41.4,41.4a57.64,57.64,0,0,0-13.26,60.61L257.3,357.49a58,58,0,0,0,13.37,20.79L506.4,612.74a57.81,57.81,0,0,0,80.41.66l200.48-193A57.49,57.49,0,0,0,788.72,339L558.88,101.56a57,57,0,0,0-19.63-13.25l-162.16-66A57.32,57.32,0,0,0,311.4,38.55c-1.4,1.67-2.89,3.29-4.42,4.83L277,73.31l-6-3.51c-14.71-8.6-27.9-14.55-41.5-18.7C182.2,36.65,134.05,44.48,94,73.16c-72,51.56-78.22,153.29-75.49,209.34,2.35,48.16,13,82.92,31.65,103.32,19.61,21.43,56.81,23,79.63,3.3,26.58-22.92,23.62-65.59,21.24-99.87l-.31-4.58c-.86-12.72-3.06-25.05-5.39-38.11-1.63-9.17-3.32-18.66-4.48-28.22-4.49-36.8-7-75.24,15.34-105.32C167.38,97.92,184,86.34,205.5,78.61A36.34,36.34,0,0,1,217.81,76.25ZM91.65,376.15a27.09,27.09,0,0,1-11.47-2.53c-18.72-8.69-26.76-36.84-33.08-76.42l-.09-.54,0-.55c-2.1-58.21,3-103.2,15.59-137.53,11.67-31.86,30.28-54.47,55.31-67.21l23.59-12L130.1,103.26c-2,4.25-3.95,8.07-5.65,11.44-11.52,22.88-16.3,32.38-12.37,97,1.25,9.61,2.87,19.76,4.59,30.51,6.94,43.3,14.8,92.38-.79,123.62l-1.16,2.33-2.24,1.35C105.13,373.92,98.16,376.15,91.65,376.15ZM65,294.91c2.53,15.85,9.09,56,22.8,62.38,1.3.6,5,2.33,13.13-1.93,11.45-26.42,4.32-70.93-2-110.34-1.76-11-3.42-21.39-4.71-31.36l-.06-.6c-2.75-44.95-1.33-65.73,3.88-82.43C73,162.19,62.19,216.43,65,294.91Z"/><path class="cls-1" d="M577.69,220.23h-59.9v58.51h-44.4V220.23H413.85v-42h59.54V119.72h44.4v58.51h59.9Z"/><path class="cls-1" d="M582.4,569.56,539.81,527l-41.62,41.61L466.62,537l41.61-41.61-42.34-42.35,29.86-29.86,42.34,42.34,41.61-41.61,31.58,31.58-41.61,41.61,42.59,42.59Z"/><rect class="cls-1" x="571.28" y="320.37" width="180.46" height="50.03"/><rect class="cls-1" x="297.68" y="326.2" width="168.12" height="46.61"/><circle class="cls-1" cx="381.73" cy="291.24" r="24.97"/><circle class="cls-1" cx="381.73" cy="407.76" r="24.97"/></g></g></svg>